<svg width="24" height="24" viewBox="0 0 24 24" fill="none" xmlns="http://www.w3.org/2000/svg">
<g clip-path="url(#clip0_356_1135)">
<path d="M6.48685 4.38193C6.48284 3.42881 6.85762 2.51314 7.52874 1.83636C8.19986 1.15957 9.11235 0.777104 10.0655 0.773097C11.0186 0.769089 11.9342 1.14387 12.611 1.81499C13.2878 2.48611 13.6703 3.39859 13.6743 4.3517L13.7287 17.2891C13.7311 17.861 13.5062 18.4104 13.1036 18.8164C12.7009 19.2225 12.1534 19.452 11.5815 19.4544C11.0097 19.4568 10.4603 19.2319 10.0542 18.8293C9.64811 18.4266 9.41863 17.8791 9.41623 17.3072L9.37392 7.24481C9.37311 7.05419 9.44807 6.87106 9.58229 6.7357C9.71652 6.60034 9.89901 6.52385 10.0896 6.52305C10.2803 6.52224 10.4634 6.5972 10.5988 6.73142C10.7341 6.86565 10.8106 7.04814 10.8114 7.23877L10.8537 17.3012C10.8545 17.4918 10.931 17.6743 11.0664 17.8085C11.2017 17.9427 11.3849 18.0177 11.5755 18.0169C11.7661 18.0161 11.9486 17.9396 12.0828 17.8042C12.217 17.6689 12.292 17.4858 12.2912 17.2951L12.2368 4.35775C12.2356 4.07459 12.1787 3.79443 12.0692 3.53328C11.9597 3.27213 11.7999 3.0351 11.5988 2.83572C11.3978 2.63634 11.1594 2.47851 10.8973 2.37125C10.6353 2.26399 10.3547 2.20939 10.0715 2.21058C9.78834 2.21177 9.50819 2.26873 9.24704 2.37819C8.98589 2.48765 8.74886 2.64747 8.54947 2.84854C8.35009 3.04961 8.19226 3.28798 8.085 3.55004C7.97774 3.8121 7.92315 4.09272 7.92434 4.37588L7.97874 17.3133C7.98275 18.2664 8.36521 19.1789 9.042 19.85C9.71879 20.5211 10.6345 20.8959 11.5876 20.8919C12.5407 20.8879 13.4532 20.5054 14.1243 19.8286C14.7954 19.1518 15.1702 18.2362 15.1662 17.283L15.1239 7.22063C15.1231 7.03001 15.198 6.84688 15.3322 6.71152C15.4665 6.57616 15.649 6.49967 15.8396 6.49887C16.0302 6.49807 16.2133 6.57302 16.3487 6.70725C16.4841 6.84147 16.5606 7.02397 16.5614 7.21459L16.6037 17.277C16.6093 18.6114 16.0846 19.8933 15.145 20.8408C14.2055 21.7883 12.928 22.3237 11.5936 22.3294C10.2593 22.335 8.97732 21.8103 8.02982 20.8707C7.08232 19.9311 6.54686 18.6537 6.54125 17.3193L6.48685 4.38193Z" fill="#A59999"/>
</g>
<defs>
<clipPath id="clip0_356_1135">
<rect width="23" height="23" fill="white" transform="translate(0 0.0966797) rotate(-0.240924)"/>
</clipPath>
</defs>
</svg>
