<svg width="24" height="24" viewBox="0 0 24 24" fill="none" xmlns="http://www.w3.org/2000/svg">
<path d="M15 22.0675V17.0675C15 16.2718 14.6839 15.5087 14.1213 14.9461C13.5587 14.3835 12.7956 14.0675 12 14.0675C11.2044 14.0675 10.4413 14.3835 9.87868 14.9461C9.31607 15.5087 9 16.2718 9 17.0675V22.0675H4C3.46957 22.0675 2.96086 21.8567 2.58579 21.4817C2.21071 21.1066 2 20.5979 2 20.0675V9.19846C2 8.85308 2.08943 8.5136 2.25959 8.21305C2.42976 7.91251 2.67485 7.66115 2.971 7.48346L10.971 2.68346C11.2818 2.49696 11.6375 2.39844 12 2.39844C12.3625 2.39844 12.7182 2.49696 13.029 2.68346L21.029 7.48346C21.3252 7.66115 21.5702 7.91251 21.7404 8.21305C21.9106 8.5136 22 8.85308 22 9.19846V20.0675C22 20.5979 21.7893 21.1066 21.4142 21.4817C21.0391 21.8567 20.5304 22.0675 20 22.0675H15Z" fill="#008164"/>
</svg>
