<svg width="40" height="40" viewBox="0 0 40 40" fill="none" xmlns="http://www.w3.org/2000/svg">
<circle cx="20" cy="20" r="20" fill="#B3DAD1"/>
<path d="M29.3334 29.5V27.1667C29.3334 25.929 28.8417 24.742 27.9666 23.8668C27.0914 22.9917 25.9044 22.5 24.6667 22.5H15.3334C14.0957 22.5 12.9088 22.9917 12.0336 23.8668C11.1584 24.742 10.6667 25.929 10.6667 27.1667V29.5" stroke="#008164" stroke-width="2" stroke-linecap="round" stroke-linejoin="round"/>
<path d="M19.9999 8.5C18.7622 8.5 17.5753 8.99167 16.7001 9.86683C15.8249 10.742 15.3333 11.929 15.3333 13.1667C15.3333 14.4043 15.8249 15.5913 16.7001 16.4665C17.5753 17.3417 18.7622 17.8333 19.9999 17.8333C21.2376 17.8333 22.4246 17.3417 23.2998 16.4665C24.1749 15.5913 24.6666 14.4043 24.6666 13.1667C24.6666 11.929 24.1749 10.742 23.2998 9.86683C22.4246 8.99167 21.2376 8.5 19.9999 8.5Z" stroke="#008164" stroke-width="2" stroke-linecap="round" stroke-linejoin="round"/>
</svg>
