<svg width="24" height="24" viewBox="0 0 24 24" fill="none" xmlns="http://www.w3.org/2000/svg">
<path d="M20 21.0675H16V17.0675C16 16.0066 15.5786 14.9892 14.8284 14.239C14.0783 13.4889 13.0609 13.0675 12 13.0675C10.9391 13.0675 9.92172 13.4889 9.17157 14.239C8.42143 14.9892 8 16.0066 8 17.0675V21.0675H4C3.73478 21.0675 3.48043 20.9621 3.29289 20.7746C3.10536 20.587 3 20.3327 3 20.0675V9.19846V9.19845C3 9.02576 3.04472 8.85602 3.1298 8.70575C3.21488 8.55547 3.33742 8.4298 3.4855 8.34095C3.4855 8.34095 3.4855 8.34095 3.4855 8.34095L11.4855 3.54095L10.971 2.68346L11.4855 3.54095C11.6409 3.4477 11.8188 3.39844 12 3.39844C12.1812 3.39844 12.3591 3.4477 12.5145 3.54095L13.029 2.68346L12.5145 3.54095L20.5145 8.34095C20.6626 8.4298 20.7851 8.55547 20.8702 8.70574C20.9553 8.85602 21 9.02576 21 9.19845V20.0675C21 20.3327 20.8946 20.587 20.7071 20.7746C20.5196 20.9621 20.2652 21.0675 20 21.0675Z" stroke="#A59999" stroke-width="2"/>
</svg>
