<svg width="183" height="138" viewBox="0 0 183 138" fill="none" xmlns="http://www.w3.org/2000/svg">
<rect x="0.317017" y="0.900391" width="182.138" height="136.604" rx="14" fill="#A0ADB9"/>
<path d="M128.449 64.9666C128.449 83.389 113.515 98.3233 95.0924 98.3233C76.67 98.3233 61.7357 83.389 61.7357 64.9666C61.7357 46.5442 76.67 31.6099 95.0924 31.6099C113.515 31.6099 128.449 46.5442 128.449 64.9666ZM69.0759 64.9666C69.0759 79.3351 80.7239 90.9831 95.0924 90.9831C109.461 90.9831 121.109 79.3351 121.109 64.9666C121.109 50.598 109.461 38.95 95.0924 38.95C80.7239 38.95 69.0759 50.598 69.0759 64.9666Z" fill="#B5C2D3"/>
<path d="M175.043 36.375C175.043 47.7793 165.798 57.0244 154.393 57.0244C142.989 57.0244 133.744 47.7793 133.744 36.375C133.744 24.9706 142.989 15.7256 154.393 15.7256C165.798 15.7256 175.043 24.9706 175.043 36.375ZM139.605 36.375C139.605 44.5424 146.226 51.1634 154.393 51.1634C162.561 51.1634 169.182 44.5424 169.182 36.375C169.182 28.2076 162.561 21.5866 154.393 21.5866C146.226 21.5866 139.605 28.2076 139.605 36.375Z" fill="#C8D1DB"/>
<mask id="mask0_226_75" style="mask-type:alpha" maskUnits="userSpaceOnUse" x="0" y="0" width="183" height="138">
<rect x="0.317017" y="0.900391" width="182.138" height="136.604" rx="14" fill="#A9B9C9"/>
</mask>
<g mask="url(#mask0_226_75)">
<path d="M195.163 115.796C195.163 134.218 180.228 149.152 161.806 149.152C143.384 149.152 128.449 134.218 128.449 115.796C128.449 97.3734 143.384 82.4391 161.806 82.4391C180.228 82.4391 195.163 97.3734 195.163 115.796ZM133.03 115.796C133.03 131.689 145.913 144.572 161.806 144.572C177.699 144.572 190.582 131.689 190.582 115.796C190.582 99.9031 177.699 87.0195 161.806 87.0195C145.913 87.0195 133.03 99.9031 133.03 115.796Z" fill="#BDCAD7"/>
</g>
</svg>
