<svg width="183" height="137" viewBox="0 0 183 137" fill="none" xmlns="http://www.w3.org/2000/svg">
<rect y="0.396423" width="182.138" height="136.604" rx="14" fill="#DA95CC"/>
<mask id="mask0_226_101" style="mask-type:alpha" maskUnits="userSpaceOnUse" x="0" y="0" width="183" height="137">
<rect y="0.396423" width="182.138" height="136.604" rx="14" fill="#DA95CC"/>
</mask>
<g mask="url(#mask0_226_101)">
<path d="M176.314 81.935L182.377 100.594H201.995L186.123 112.125L192.186 130.784L176.314 119.252L160.442 130.784L166.505 112.125L150.633 100.594H170.251L176.314 81.935Z" fill="#F4C4EA"/>
<path d="M104.306 -5.95728L112.508 19.2868H139.051L117.577 34.8885L125.78 60.1325L104.306 44.5308L82.832 60.1325L91.0343 34.8885L69.5604 19.2868H96.1036L104.306 -5.95728Z" fill="#F4C4EA"/>
</g>
<path d="M121.249 77.6992L125.647 91.2359H139.881L128.366 99.602L132.764 113.139L121.249 104.773L109.734 113.139L114.132 99.602L102.617 91.2359H116.851L121.249 77.6992Z" fill="#F4C4EA"/>
<path d="M153.547 54.4025L156.4 63.183H165.632L158.163 68.6097L161.016 77.3902L153.547 71.9635L146.078 77.3902L148.931 68.6097L141.461 63.183H150.694L153.547 54.4025Z" fill="#F4C4EA"/>
</svg>
