<svg width="428" height="266" viewBox="0 0 428 266" fill="none" xmlns="http://www.w3.org/2000/svg">
<rect width="428" height="266" rx="30" fill="#629E83"/>
<path d="M389.639 182.429L389.651 182.436L389.663 182.443L407.416 192.296L400.44 208.393L400.432 208.41L400.426 208.427L394.002 224.881L372.024 224.615L372.012 224.615L371.999 224.615L350.021 224.881L343.598 208.427L343.591 208.41L343.584 208.393L336.608 192.296L354.36 182.443L354.372 182.436L354.384 182.429L372.012 171.994L389.639 182.429Z" stroke="#E5E3C8" stroke-width="2"/>
<path d="M294.207 131.84L294.219 131.847L294.231 131.854L306.001 138.386L301.392 149.022L301.385 149.039L301.378 149.056L297.108 159.995L282.442 159.817L282.43 159.817L282.418 159.817L267.753 159.995L263.483 149.056L263.476 149.039L263.469 149.022L258.859 138.386L270.629 131.854L270.642 131.847L270.654 131.84L282.43 124.868L294.207 131.84Z" stroke="#E5E3C8" stroke-width="2"/>
<path d="M339.663 147.268L357.799 136.531L376.345 126.238L369.008 109.309L362.334 92.2101L339.663 92.4846L316.992 92.2101L310.317 109.309L302.981 126.238L321.526 136.531L339.663 147.268Z" fill="#E5E3C8"/>
<path d="M257.126 170.567L285.773 171.848L314.456 172.434L321.766 194.329L329.923 216.036L305.793 228.288L282.151 241.117L259.928 226.794L237.16 213.016L247.555 191.912L257.126 170.567Z" fill="#E5E3C8"/>
<path d="M133.532 51.2577L133.535 51.2445L133.538 51.2314L137.868 34.3446L118.539 26.3432L118.524 26.3368L118.508 26.3301L99.4888 17.8601L83.8569 29.9057L83.845 29.9149L83.8326 29.9239L67.7398 41.5854L77.4229 57.0324L77.4305 57.0447L77.4377 57.0571L86.5109 72.7228L108.115 70.2299L108.132 70.2279L108.148 70.2264L129.858 68.2559L133.532 51.2577Z" stroke="#E5E3C8" stroke-width="2"/>
<path d="M57.5014 35.2377L57.5043 35.2245L57.5076 35.2114L59.3911 27.8658L50.9859 24.3865L50.9706 24.3802L50.9555 24.3735L42.6794 20.6878L35.8734 25.9323L35.8615 25.9415L35.8492 25.9505L28.8426 31.0277L33.056 37.7493L33.0637 37.7616L33.0709 37.774L37.0162 44.586L46.4138 43.5016L46.4305 43.4997L46.4474 43.4981L55.9012 42.64L57.5014 35.2377Z" stroke="#E5E3C8" stroke-width="2"/>
<path d="M414.231 103.37L414.172 93.1648L414.509 82.9626L402.191 79.8533L389.999 76.4472L382.445 84.731L374.572 92.8281L382.222 101.057L389.548 109.468L401.83 106.27L414.231 103.37Z" fill="#E5E3C8"/>
</svg>
