<svg width="427" height="195" viewBox="0 0 427 195" fill="none" xmlns="http://www.w3.org/2000/svg">
<rect x="-1" y="-71" width="428" height="266" rx="30" fill="#629E83"/>
<path d="M388.639 111.429L388.651 111.436L388.663 111.443L406.416 121.296L399.44 137.393L399.432 137.41L399.426 137.427L393.002 153.881L371.024 153.615L371.012 153.615L370.999 153.615L349.021 153.881L342.598 137.427L342.591 137.41L342.584 137.393L335.608 121.296L353.36 111.443L353.372 111.436L353.384 111.429L371.012 100.994L388.639 111.429Z" stroke="#E5E3C8" stroke-width="2"/>
<path d="M293.207 60.8397L293.219 60.8468L293.231 60.8535L305.001 67.3863L300.392 78.0225L300.385 78.0393L300.378 78.0565L296.108 88.9948L281.442 88.8173L281.43 88.8171L281.418 88.8173L266.753 88.9948L262.483 78.0565L262.476 78.0393L262.469 78.0225L257.859 67.3863L269.629 60.8535L269.642 60.8468L269.654 60.8397L281.43 53.8677L293.207 60.8397Z" stroke="#E5E3C8" stroke-width="2"/>
<path d="M338.663 76.2684L356.799 65.5312L375.345 55.238L368.008 38.3089L361.334 21.2101L338.663 21.4846L315.992 21.2101L309.317 38.3089L301.981 55.238L320.526 65.5312L338.663 76.2684Z" fill="#E5E3C8"/>
<path d="M256.126 99.5672L284.773 100.848L313.456 101.434L320.766 123.329L328.923 145.036L304.793 157.288L281.151 170.117L258.928 155.794L236.16 142.016L246.555 120.912L256.126 99.5672Z" fill="#E5E3C8"/>
<path d="M132.532 -19.7423L132.535 -19.7555L132.538 -19.7686L136.868 -36.6554L117.539 -44.6568L117.524 -44.6632L117.508 -44.6699L98.4888 -53.1399L82.8569 -41.0943L82.845 -41.0851L82.8326 -41.0761L66.7398 -29.4146L76.4229 -13.9676L76.4305 -13.9553L76.4377 -13.9429L85.5109 1.7228L107.115 -0.770119L107.132 -0.772051L107.148 -0.773578L128.858 -2.74409L132.532 -19.7423Z" stroke="#E5E3C8" stroke-width="2"/>
<path d="M413.231 32.3704L413.172 22.1648L413.509 11.9626L401.191 8.85325L388.999 5.44717L381.445 13.731L373.572 21.8281L381.222 30.0572L388.548 38.4675L400.83 35.2696L413.231 32.3704Z" fill="#E5E3C8"/>
</svg>
