<svg width="183" height="140" viewBox="0 0 183 140" fill="none" xmlns="http://www.w3.org/2000/svg">
<rect y="1.84131" width="182.138" height="136.604" rx="14" fill="#CFC982"/>
<path d="M165.43 100.56L165.442 100.569L165.455 100.578L172.733 105.697L169.854 114.117L169.849 114.132L169.844 114.146L167.225 122.65L158.327 122.514L158.312 122.514L158.297 122.514L149.399 122.65L146.779 114.146L146.775 114.132L146.77 114.117L143.891 105.697L151.169 100.578L151.182 100.569L151.194 100.56L158.312 95.2195L165.43 100.56Z" stroke="#E5E3C8" stroke-width="2"/>
<path d="M124.818 73.2773L124.831 73.2865L124.843 73.2953L129.576 76.6241L127.704 82.0989L127.699 82.1134L127.694 82.1281L125.991 87.6577L120.205 87.5689L120.19 87.5687L120.175 87.5689L114.389 87.6577L112.686 82.1281L112.681 82.1134L112.677 82.0989L110.804 76.6241L115.537 73.2953L115.55 73.2865L115.562 73.2773L120.19 69.805L124.818 73.2773Z" stroke="#E5E3C8" stroke-width="2"/>
<mask id="mask0_226_89" style="mask-type:alpha" maskUnits="userSpaceOnUse" x="0" y="0" width="183" height="138">
<rect y="0.782471" width="182.138" height="136.604" rx="14" fill="#CFC982"/>
</mask>
<g mask="url(#mask0_226_89)">
<path d="M197.365 86.415L194.447 77.2179L191.813 67.9355L182.165 67.8682L172.523 67.5049L169.477 76.6604L166.152 85.7182L173.918 91.444L181.505 97.4053L189.351 91.7885L197.365 86.415Z" fill="#E6E3C8"/>
</g>
<path d="M144.546 81.2621L152.264 75.4716L160.156 69.9206L157.034 60.7908L154.193 51.5696L144.546 51.7176L134.898 51.5696L132.057 60.7908L128.935 69.9206L136.828 75.4716L144.546 81.2621Z" fill="#E5E3C8"/>
<path d="M109.422 93.827L121.613 94.5174L133.819 94.8336L136.93 106.641L140.401 118.348L130.132 124.955L120.071 131.874L110.614 124.15L100.925 116.719L105.349 105.338L109.422 93.827Z" fill="#E5E3C8"/>
<path d="M56.3053 29.4013L56.3079 29.3862L56.3109 29.3712L58.0756 20.6493L50.1955 16.5156L50.1819 16.5085L50.1685 16.5009L42.4189 12.1274L36.0524 18.3445L36.0414 18.3552L36.0301 18.3656L29.4759 24.3844L33.4213 32.3605L33.4281 32.3743L33.4344 32.3882L37.1333 40.4816L45.9383 39.194L45.9535 39.1918L45.9687 39.1901L54.809 38.1732L56.3053 29.4013Z" stroke="#E5E3C8" stroke-width="2"/>
<path d="M23.9501 20.7618L23.9527 20.7467L23.9558 20.7316L24.6794 17.1553L21.4482 15.4603L21.4346 15.4532L21.4212 15.4456L18.2435 13.6523L15.633 16.2016L15.622 16.2123L15.6107 16.2226L12.9232 18.6906L14.5409 21.9612L14.5477 21.975L14.5541 21.9889L16.0708 25.3075L19.6812 24.7796L19.6964 24.7774L19.7117 24.7756L23.3366 24.3587L23.9501 20.7618Z" stroke="#E5E3C8" stroke-width="2"/>
<path d="M176.279 57.5882L176.253 52.0844L176.397 46.5824L171.155 44.9056L165.967 43.0687L162.752 47.5361L159.402 51.9028L162.657 56.3407L165.775 60.8763L171.001 59.1517L176.279 57.5882Z" fill="#E5E3C8"/>
</svg>
